{"title":"Mother Fucking Gangbang 2 DVD","uid":7004605,"size":931435198,"categoryP":"porn","categoryS":"movies","magnet":"?xt=urn:btih:f60dc9071b4dd20dbad671d99e2f00d2e0e045a4&amp;dn=Mother+Fucking+Gangbang+2+DVD&amp;tr=udp%3A%2F%2Ftracker.openbittorrent.com%3A80&amp;tr=udp%3A%2F%2Fopen.demonii.com%3A1337&amp;tr=udp%3A%2F%2Ftracker.coppersurfer.tk%3A6969&amp;tr=udp%3A%2F%2Fexodus.desync.com%3A6969","seeders":0,"leechers":0,"uploader":"tigris1968","files":117,"time":1328221003,"description":"Mother Fucking Gangbang 2 DVD\n\nWhite Ghetto Films\n\n\nCategory \tAll Sex, Gang Bang\nStarring \tSummer Sinn, Olivia Sinclair, Trisha Sterling\n\n\nStudio \tWhite Ghetto Films\nDiscs \t1\nRelease Date \t23 February 2010\n\nfrond\n &lt;a href=&quot;\nhttp://bayimg.com/iamNLAadF&quot; rel=&quot;nofollow&quot; target=&quot;_NEW&quot;&gt;\nhttp://bayimg.com/iamNLAadF&lt;/a&gt;\n\nback\n &lt;a href=&quot;\nhttp://bayimg.com/IAmnOaadf&quot; rel=&quot;nofollow&quot; target=&quot;_NEW&quot;&gt;\nhttp://bayimg.com/IAmnOaadf&lt;/a&gt;\n\nscreen\n &lt;a href=&quot;\nhttp://bayimg.com/jamnAAADF&quot; rel=&quot;nofollow&quot; target=&quot;_NEW&quot;&gt;\nhttp://bayimg.com/jamnAAADF&lt;/a&gt;\n\nGeneral\nComplete name                    : C:\\Downloads\\Mother Fucking Gangbang 2 DVD\\dvd\\Mother Fucking Gangbang 2 DVD.avi\nFormat                           : AVI\nFormat/Info                      : Audio Video Interleave\nFile size                        : 874 MiB\nDuration                         : 1h 31mn\nOverall bit rate                 : 1 339 Kbps\nWriting application              : MEncoder SVN-r30881(20100311-gcc4.3.3)\nWriting library                  : MPlayer\n\nVideo\nID                               : 0\nFormat                           : MPEG-4 Visual\nFormat profile                   : Advanced Simple@L5\nFormat settings, BVOP            : 2\nFormat settings, QPel            : No\nFormat settings, GMC             : No warppoints\nFormat settings, Matrix          : Default (H.263)\nCodec ID                         : XVID\nCodec ID/Hint                    : XviD\nDuration                         : 1h 31mn\nBit rate                         : 1 198 Kbps\nWidth                            : 720 pixels\nHeight                           : 480 pixels\nDisplay aspect ratio             : 3:2\nFrame rate                       : 25.000 fps\nStandard                         : NTSC\nColor space                      : YUV\nChroma subsampling               : 4:2:0\nBit depth                        : 8 bits\nScan type                        : Progressive\nCompression mode                 : Lossy\nBits/(Pixel*Frame)               : 0.139\nStream size                      : 782 MiB (90%)\nWriting library                  : XviD 1.2.1 (UTC 2008-12-04)\n\nAudio\nID                               : 1\nFormat                           : MPEG Audio\nFormat version                   : Version 1\nFormat profile                   : Layer 3\nMode                             : Joint stereo\nMode extension                   : MS Stereo\nCodec ID                         : 55\nCodec ID/Hint                    : MP3\nDuration                         : 1h 31mn\nBit rate mode                    : Constant\nBit rate                         : 128 Kbps\nChannel(s)                       : 2 channels\nSampling rate                    : 44.1 KHz\nCompression mode                 : Lossy\nDelay relative to video          : 40ms\nStream size                      : 83.6 MiB (10%)\nAlignment                        : Aligned on interleaves\nInterleave, duration             : 26 ms (0.65 video frame)\nInterleave, preload duration     : 522 ms\nWriting library                  : LAME3.98","torrent":{"xt":"urn:btih:f60dc9071b4dd20dbad671d99e2f00d2e0e045a4","amp;dn":"Mother+Fucking+Gangbang+2+DVD","amp;tr":["udp%3A%2F%2Ftracker.openbittorrent.com%3A80","udp%3A%2F%2Fopen.demonii.com%3A1337","udp%3A%2F%2Ftracker.coppersurfer.tk%3A6969","udp%3A%2F%2Fexodus.desync.com%3A6969"],"infoHash":"f60dc9071b4dd20dbad671d99e2f00d2e0e045a4","infoHashBuffer":{"type":"Buffer","data":[246,13,201,7,27,77,210,13,186,214,113,217,158,47,0,210,224,224,69,164]},"announce":[],"urlList":[]}}